<?xml version="1.0" standalone="no"?>
<!DOCTYPE svg PUBLIC "-//W3C//DTD SVG 1.1//EN" "http://www.w3.org/Graphics/SVG/1.1/DTD/svg11.dtd" >
<svg xmlns="http://www.w3.org/2000/svg">
<metadata></metadata>
<defs>
<font id="super_mario_bros._3regular" horiz-adv-x="1920" >
<font-face units-per-em="2048" ascent="1638" descent="-410" />
<missing-glyph horiz-adv-x="640" />
<glyph horiz-adv-x="2048" />
<glyph horiz-adv-x="2048" />
<glyph unicode="&#xd;" horiz-adv-x="2048" />
<glyph unicode=" "  horiz-adv-x="640" />
<glyph unicode="&#x09;" horiz-adv-x="640" />
<glyph unicode="&#xa0;" horiz-adv-x="640" />
<glyph unicode="$" horiz-adv-x="2176" d="M0 512v256h256v-256h-256zM0 1024v512h256v-256h256v256h-256v256h256v256h256v-256h256v256h256v-256h512v-256h-512v-256h256v-256h-256v-512h256v-256h-256v-256h-256v256h-256v-256h-256v256h-256v256h256v512h-512zM768 512h256v512h-256v-512zM768 1280h256v256 h-256v-256zM1536 512v512h256v-512h-256z" />
<glyph unicode="0" d="M0 256v768h256v256h1024v-256h256v-768h-256v-256h-1024v256h-256zM512 256h512v768h-512v-768z" />
<glyph unicode="1" horiz-adv-x="1408" d="M0 0v256h256v768h-256v256h768v-1024h256v-256h-1024z" />
<glyph unicode="2" d="M0 0v512h256v256h768v256h-1024v256h1280v-256h256v-256h-256v-256h-768v-256h1024v-256h-1536z" />
<glyph unicode="3" d="M0 0v256h1024v256h-768v256h768v256h-1024v256h1280v-256h256v-256h-256v-256h256v-256h-256v-256h-1280z" />
<glyph unicode="4" d="M0 256v1024h512v-768h512v768h256v-768h256v-256h-256v-256h-256v256h-1024z" />
<glyph unicode="5" d="M0 0v256h1024v256h-1024v768h1280v-256h-768v-256h768v-256h256v-256h-256v-256h-1280z" />
<glyph unicode="6" d="M0 256v768h256v256h1024v-256h-768v-256h768v-256h256v-256h-256v-256h-1024v256h-256zM512 256h512v256h-512v-256z" />
<glyph unicode="7" d="M0 1024v256h1536v-512h-256v-256h-256v-256h-256v-256h-512v256h256v256h256v256h256v256h-1024z" />
<glyph unicode="8" d="M0 256v256h256v256h-256v256h256v256h1024v-256h256v-256h-256v-256h256v-256h-256v-256h-1024v256h-256zM512 256h512v256h-512v-256zM512 768h512v256h-512v-256z" />
<glyph unicode="9" d="M0 768v256h256v256h1024v-256h256v-768h-256v-256h-1024v256h768v256h-768v256h-256zM512 768h512v256h-512v-256z" />
<glyph unicode="A" horiz-adv-x="2432" d="M0 -256v1792h256v256h1536v-256h256v-1792h-2048zM256 0h512v512h512v-512h512v1280h-256v256h-1024v-256h-256v-1280zM768 768v512h512v-512h-512z" />
<glyph unicode="B" horiz-adv-x="2432" d="M0 -256v2048h1536v-256h-1280v-1536h1280v256h256v512h-256v256h256v256h256v-1280h-256v-256h-1792zM768 256v512h512v-512h-512zM768 1024v256h512v-256h-512zM1536 1280v256h256v-256h-256z" />
<glyph unicode="C" horiz-adv-x="2432" d="M0 256v1280h256v256h1536v-256h256v-1536h-256v-256h-1280v256h1024v256h256v256h-512v-256h-512v1024h512v-256h512v256h-256v256h-1024v-256h-256v-1024h-256zM256 0v256h256v-256h-256z" />
<glyph unicode="D" horiz-adv-x="2432" d="M0 -256v2048h1536v-256h256v-256h256v-1280h-256v-256h-1792zM256 0h1280v256h256v768h-256v256h-256v256h-1024v-1536zM768 256v1024h256v-256h256v-768h-512z" />
<glyph unicode="E" horiz-adv-x="2432" d="M0 -256v2048h2048v-768h-256v-512h256v-768h-2048zM256 0h1536v256h-1024v512h768v256h-768v256h1024v256h-1536v-1536z" />
<glyph unicode="F" horiz-adv-x="2432" d="M0 -256v2048h2048v-768h-256v-512h-768v-768h-1024zM256 0h512v768h768v256h-768v256h1024v256h-1536v-1536z" />
<glyph unicode="G" horiz-adv-x="2432" d="M0 256v1280h256v256h1536v-256h256v-1536h-256v-256h-1280v256h1024v256h256v512h-768v-256h256v-256h-512v1024h512v-256h512v256h-256v256h-1024v-256h-256v-1024h-256zM256 0v256h256v-256h-256z" />
<glyph unicode="H" horiz-adv-x="2432" d="M0 -256v2048h2048v-2048h-2048zM256 0h512v768h512v-768h512v1536h-512v-512h-512v512h-512v-1536z" />
<glyph unicode="I" horiz-adv-x="1408" d="M0 -256v2048h1024v-2048h-1024zM256 0h512v1536h-512v-1536z" />
<glyph unicode="J" horiz-adv-x="2432" d="M0 256v768h1024v768h1024v-1536h-256v1280h-512v-1280h-512v512h-512v-512h-256zM256 0v256h256v-256h-256zM512 0h1024v-256h-1024v256zM1536 0v256h256v-256h-256z" />
<glyph unicode="K" horiz-adv-x="2432" d="M0 -256v2048h1024v-256h256v-256h-256v-256h-256v512h-512v-1536h512v512h256v-256h256v-256h-256v-256h-1024zM1280 0h512v256h256v-512h-768v256zM1280 512v512h256v-512h-256zM1280 1536v256h768v-512h-256v256h-512zM1536 256v256h256v-256h-256zM1536 1024v256h256 v-256h-256z" />
<glyph unicode="L" horiz-adv-x="1408" d="M0 -256v2048h1024v-768h-256v512h-512v-1536h512v768h256v-1024h-1024z" />
<glyph unicode="M" horiz-adv-x="2432" d="M0 -256v2048h1536v-256h-1280v-1536h256v1280h256v-1280h256v1280h256v-1280h512v1280h256v-1536h-2048zM1536 1280v256h256v-256h-256z" />
<glyph unicode="N" horiz-adv-x="1408" d="M0 -256v2048h1024v-768h-256v512h-512v-1536h512v768h256v-1024h-1024z" />
<glyph unicode="O" horiz-adv-x="2432" d="M0 256v1024h256v-1024h-256zM256 0v256h256v-256h-256zM256 1280v256h256v-256h-256zM512 0h1024v-256h-1024v256zM512 1536v256h1024v-256h-1024zM768 256v1024h512v-1024h-512zM1536 0v256h256v-256h-256zM1536 1280v256h256v-256h-256zM1792 256v1024h256v-1024h-256z " />
<glyph unicode="P" horiz-adv-x="2432" d="M0 -256v2048h1536v-256h-1280v-1536h512v512h768v-256h-512v-512h-1024zM768 768v512h512v-512h-512zM1536 512v256h256v-256h-256zM1536 1280v256h256v-256h-256zM1792 768v512h256v-512h-256z" />
<glyph unicode="Q" horiz-adv-x="2432" d="M0 256v1024h256v-1024h-256zM256 0v256h256v-256h-256zM256 1280v256h256v-256h-256zM512 0h768v-256h-768v256zM512 1536v256h1024v-256h-1024zM768 256v1024h512v-768h-256v-256h-256zM1280 0v256h256v-256h-256zM1536 0h256v256h256v-512h-512v256zM1536 256v256h256 v-256h-256zM1536 1280v256h256v-256h-256zM1792 512v768h256v-768h-256z" />
<glyph unicode="R" horiz-adv-x="2432" d="M0 -256v2048h1536v-256h-1280v-1536h512v512h512v-512h512v256h-256v512h256v-256h256v-768h-2048zM768 768v512h512v-512h-512zM1536 1280v256h256v-256h-256zM1792 768v512h256v-512h-256z" />
<glyph unicode="S" horiz-adv-x="2432" d="M0 -256v1536h256v-512h1024v-256h-1024v-512h1280v256h256v512h256v-768h-256v-256h-1792zM256 1280v256h256v-256h-256zM512 1536v256h1536v-768h-256v-256h-256v256h-768v256h1024v256h-1280z" />
<glyph unicode="T" horiz-adv-x="2432" d="M0 1024v768h2048v-768h-512v-1280h-1024v1280h-512zM256 1280h512v-1280h512v1280h512v256h-1536v-256z" />
<glyph unicode="U" horiz-adv-x="2432" d="M0 0v1792h2048v-1536h-256v1280h-512v-1280h-512v1280h-512v-1280h256v-256h1024v-256h-1280v256h-256zM1536 0v256h256v-256h-256z" />
<glyph unicode="V" horiz-adv-x="2432" d="M0 256v1536h2048v-1280h-256v-256h-256v512h256v768h-512v-1024h-512v1024h-512v-768h256v-512h-512zM512 0v256h256v-256h-256zM768 0h512v-256h-512v256zM1280 0v256h256v-256h-256z" />
<glyph unicode="W" horiz-adv-x="2432" d="M0 -256v2048h2048v-1536h-256v1280h-512v-1280h-256v1280h-256v-1280h-256v1280h-256v-1536h1280v-256h-1536zM1536 0v256h256v-256h-256z" />
<glyph unicode="X" horiz-adv-x="2432" d="M0 -256v768h256v-512h256v256h256v-512h-768zM0 1280v512h512v-256h-256v-256h-256zM256 512v256h256v-256h-256zM256 1024v256h256v-256h-256zM512 768v256h256v-256h-256zM512 1280v256h256v-256h-256zM768 256v256h256v256h256v256h256v-512h-256v-256h-512zM768 1024 v256h256v-256h-256zM1024 1280v256h256v-256h-256zM1280 0v256h256v-256h-256zM1280 1536v256h768v-512h-256v256h-512zM1536 0h256v256h256v-512h-512v256zM1536 256v256h256v-256h-256zM1536 1024v256h256v-256h-256z" />
<glyph unicode="Y" horiz-adv-x="2432" d="M0 512v1280h2048v-1280h-512v-768h-1024v768h-512zM256 768h512v-768h512v768h512v768h-512v-512h-512v512h-512v-768z" />
<glyph unicode="Z" horiz-adv-x="2432" d="M0 -256v768h256v-512h1536v256h-1024v256h256v256h256v256h256v256h256v256h-1536v-256h768v-256h-256v-256h-256v256h-512v768h2048v-768h-256v-256h-256v-256h512v-768h-2048zM256 512v256h256v-256h-256z" />
<glyph unicode="a" d="M0 0v1280h256v256h1024v-256h256v-1280h-512v512h-512v-512h-512zM512 768h512v512h-512v-512z" />
<glyph unicode="b" d="M0 0v1536h1280v-256h256v-256h-256v-256h256v-512h-256v-256h-1280zM512 256h512v512h-512v-512zM512 1024h512v256h-512v-256z" />
<glyph unicode="c" d="M0 256v1024h256v256h1024v-256h256v-256h-512v256h-512v-1024h512v256h512v-256h-256v-256h-1024v256h-256z" />
<glyph unicode="d" d="M0 0v1536h1024v-256h256v-256h256v-768h-256v-256h-1280zM512 256h512v768h-256v256h-256v-1024z" />
<glyph unicode="e" d="M0 0v1536h1536v-256h-1024v-256h768v-256h-768v-512h1024v-256h-1536z" />
<glyph unicode="f" d="M0 0v1536h1536v-256h-1024v-256h768v-256h-768v-768h-512z" />
<glyph unicode="g" d="M0 256v1024h256v256h1024v-256h256v-256h-512v256h-512v-1024h512v256h-256v256h768v-512h-256v-256h-1024v256h-256z" />
<glyph unicode="h" d="M0 0v1536h512v-512h512v512h512v-1536h-512v768h-512v-768h-512z" />
<glyph unicode="i" horiz-adv-x="896" d="M0 0v1536h512v-1536h-512z" />
<glyph unicode="j" d="M0 256v512h512v-512h512v1280h512v-1280h-256v-256h-1024v256h-256z" />
<glyph unicode="k" d="M0 0v1536h512v-512h256v256h256v256h512v-256h-256v-256h-256v-512h256v-256h256v-256h-512v256h-256v256h-256v-512h-512z" />
<glyph unicode="l" d="M0 0v1536h512v-1280h1024v-256h-1536z" />
<glyph unicode="m" d="M0 0v1536h1280v-256h256v-1280h-512v1280h-256v-1280h-256v1280h-256v-1280h-256z" />
<glyph unicode="n" d="M0 0v1536h1280v-256h256v-1280h-512v1280h-512v-1280h-512z" />
<glyph unicode="o" d="M0 256v1024h256v256h1024v-256h256v-1024h-256v-256h-1024v256h-256zM512 256h512v1024h-512v-1024z" />
<glyph unicode="p" d="M0 0v1536h1280v-256h256v-512h-256v-256h-768v-512h-512zM512 768h512v512h-512v-512z" />
<glyph unicode="q" d="M0 256v1024h256v256h1024v-256h256v-768h-256v-256h-256v-256h-768v256h-256zM512 256h256v256h256v768h-512v-1024zM1280 0v256h256v-256h-256z" />
<glyph unicode="r" d="M0 0v1536h1280v-256h256v-512h-256v-512h256v-256h-512v512h-512v-512h-512zM512 768h512v512h-512v-512z" />
<glyph unicode="s" d="M0 0v512h1024v256h-1024v512h256v256h1280v-256h-1024v-256h768v-256h256v-512h-256v-256h-1280z" />
<glyph unicode="t" d="M0 1280v256h1536v-256h-512v-1280h-512v1280h-512z" />
<glyph unicode="u" d="M0 256v1280h512v-1280h512v1280h512v-1280h-256v-256h-1024v256h-256z" />
<glyph unicode="v" d="M0 768v768h512v-1024h512v1024h512v-768h-256v-512h-256v-256h-512v256h-256v512h-256z" />
<glyph unicode="w" d="M0 0v1536h256v-1280h256v1280h256v-1280h256v1280h512v-1280h-256v-256h-1280z" />
<glyph unicode="x" d="M0 0v512h256v256h256v256h256v256h256v256h512v-256h-256v-256h-256v-256h-256v-256h-256v-256h-256v-256h-256zM0 1280v256h256v-256h-256zM256 1024v256h256v-256h-256zM1024 256v256h256v-256h-256zM1280 0v256h256v-256h-256z" />
<glyph unicode="y" d="M0 768v768h512v-512h512v512h512v-768h-512v-768h-512v768h-512z" />
<glyph unicode="z" d="M0 0v512h256v256h256v256h256v256h-768v256h1536v-256h-256v-256h-256v-256h-256v-256h-256v-256h1024v-256h-1536z" />
<glyph unicode="&#xd7;" horiz-adv-x="1664" d="M0 0v256h256v-256h-256zM0 1024v256h256v-256h-256zM256 256v256h256v-256h-256zM256 768v256h256v-256h-256zM512 512v256h256v-256h-256zM768 256v256h256v-256h-256zM768 768v256h256v-256h-256zM1024 0v256h256v-256h-256zM1024 1024v256h256v-256h-256z" />
<glyph unicode="&#x2000;" horiz-adv-x="1024" />
<glyph unicode="&#x2001;" horiz-adv-x="2048" />
<glyph unicode="&#x2002;" horiz-adv-x="1024" />
<glyph unicode="&#x2003;" horiz-adv-x="2048" />
<glyph unicode="&#x2004;" horiz-adv-x="682" />
<glyph unicode="&#x2005;" horiz-adv-x="512" />
<glyph unicode="&#x2006;" horiz-adv-x="341" />
<glyph unicode="&#x2007;" horiz-adv-x="341" />
<glyph unicode="&#x2008;" horiz-adv-x="256" />
<glyph unicode="&#x2009;" horiz-adv-x="409" />
<glyph unicode="&#x200a;" horiz-adv-x="113" />
<glyph unicode="&#x202f;" horiz-adv-x="409" />
<glyph unicode="&#x205f;" horiz-adv-x="512" />
<glyph unicode="&#xe000;" horiz-adv-x="1540" d="M0 0v1540h1540v-1540h-1540z" />
</font>
</defs>
</svg>
